<svg xmlns="http://www.w3.org/2000/svg" width="23.396" height="23.396" viewBox="0 0 23.396 23.396">
  <path id="ic-home" d="M23.617,8.526l-6.3-5.209a5.632,5.632,0,0,0-7.236,0l-6.3,5.209A4.989,4.989,0,0,0,2,12.372V20.5a4.794,4.794,0,0,0,4.679,4.9h2.34a2.34,2.34,0,0,0,2.34-2.34v-3.8a2.457,2.457,0,0,1,2.34-2.561,2.457,2.457,0,0,1,2.34,2.561v3.8a2.34,2.34,0,0,0,2.34,2.34h2.34A4.794,4.794,0,0,0,25.4,20.5V12.372A4.989,4.989,0,0,0,23.617,8.526Z" transform="translate(-2 -2)" fill="#555" fill-rule="evenodd"/>
</svg>
