<svg xmlns="http://www.w3.org/2000/svg" width="22.698" height="22.698" viewBox="0 0 22.698 22.698">
  <g id="ic-buscar" transform="translate(0 -0.003)">
    <path id="Caminho_7" data-name="Caminho 7" d="M22.194,19.727l-4.679-4.679a9.342,9.342,0,0,0,1.692-5.443,9.433,9.433,0,0,0-.757-3.731A9.4,9.4,0,0,0,13.334.76a9.571,9.571,0,0,0-7.462,0A9.4,9.4,0,0,0,.757,5.875a9.57,9.57,0,0,0,0,7.461,9.407,9.407,0,0,0,5.115,5.115,9.437,9.437,0,0,0,3.731.757,9.342,9.342,0,0,0,5.443-1.692l4.679,4.665a1.62,1.62,0,0,0,1.228.518,1.746,1.746,0,0,0,1.241-2.973Zm-8.273-5.8A5.885,5.885,0,0,1,9.6,15.717a5.886,5.886,0,0,1-4.317-1.794A5.885,5.885,0,0,1,3.492,9.606,5.885,5.885,0,0,1,5.286,5.289,5.885,5.885,0,0,1,9.6,3.495,5.886,5.886,0,0,1,13.92,5.289a5.885,5.885,0,0,1,1.794,4.317A5.885,5.885,0,0,1,13.92,13.923Z" transform="translate(0 0)" fill="#555"/>
  </g>
</svg>
